<?xml version="1.0" encoding="utf-8"?>
<!-- Generator: Adobe Illustrator 16.0.0, SVG Export Plug-In . SVG Version: 6.00 Build 0)  -->
<!DOCTYPE svg PUBLIC "-//W3C//DTD SVG 1.1//EN" "http://www.w3.org/Graphics/SVG/1.1/DTD/svg11.dtd">
<svg version="1.1" id="Layer_1" xmlns="http://www.w3.org/2000/svg" xmlns:xlink="http://www.w3.org/1999/xlink" x="0px" y="0px"
	 width="88px" height="88px" viewBox="0 0 88 88" enable-background="new 0 0 88 88" xml:space="preserve">
<rect fill="#4B699C" width="88" height="88"/>
<rect x="-88" y="-28" fill="#4B689C" width="44" height="44"/>
<rect x="-88" y="16" fill="#6F86AF" width="44" height="44"/>
<rect x="-88" y="60" fill="#93A4C3" width="44" height="44"/>
<rect x="-88" y="104" fill="#B7C2D7" width="44" height="44"/>
<rect x="-88" y="148" fill="#4B689C" width="44" height="44"/>
<rect x="-88" y="192" fill="#6F86AF" width="44" height="44"/>
<rect x="-88" y="236" fill="#93A4C3" width="44" height="44"/>
<rect x="-88" y="280" fill="#B7C2D7" width="44" height="44"/>
<rect x="-73" y="-8" fill="#FFFFFF" width="14" height="4"/>
<rect x="-73" y="36" fill="#FFFFFF" width="14" height="4"/>
<rect x="-73" y="80" fill="#FFFFFF" width="14" height="4"/>
<rect x="-73" y="124" fill="#FFFFFF" width="14" height="4"/>
<rect x="-73" y="168" fill="#FFFFFF" width="14" height="4"/>
<rect x="-68" y="163" fill="#FFFFFF" width="4" height="14"/>
<rect x="-73" y="212" fill="#FFFFFF" width="14" height="4"/>
<rect x="-68" y="207" fill="#FFFFFF" width="4" height="14"/>
<rect x="-73" y="256" fill="#FFFFFF" width="14" height="4"/>
<rect x="-68" y="251" fill="#FFFFFF" width="4" height="14"/>
<rect x="-73" y="300" fill="#FFFFFF" width="14" height="4"/>
<rect x="-68" y="295" fill="#FFFFFF" width="4" height="14"/>
<g>
	<path fill="#FFFFFF" d="M68.852,27.403c0,2.371-1.891,4.283-4.227,4.283H23.378c-2.336,0-4.23-1.912-4.23-4.283l0,0
		c0-2.367,1.895-4.279,4.23-4.279h41.247C66.961,23.124,68.852,25.036,68.852,27.403L68.852,27.403z"/>
	<path fill="#FFFFFF" d="M68.852,60.599c0,2.367-1.891,4.295-4.227,4.295H23.378c-2.336,0-4.23-1.928-4.23-4.295l0,0
		c0-2.371,1.895-4.285,4.23-4.285h41.247C66.961,56.313,68.852,58.228,68.852,60.599L68.852,60.599z"/>
	<path fill="#FFFFFF" d="M68.852,44.011c0,2.35-1.891,4.281-4.227,4.281H23.378c-2.336,0-4.23-1.932-4.23-4.281l0,0
		c0-2.371,1.895-4.303,4.23-4.303h41.247C66.961,39.708,68.852,41.64,68.852,44.011L68.852,44.011z"/>
</g>
</svg>
