<?xml version="1.0" encoding="utf-8"?>
<!-- Generator: Adobe Illustrator 16.0.0, SVG Export Plug-In . SVG Version: 6.00 Build 0)  -->
<!DOCTYPE svg PUBLIC "-//W3C//DTD SVG 1.1//EN" "http://www.w3.org/Graphics/SVG/1.1/DTD/svg11.dtd">
<svg version="1.1" id="Layer_1" xmlns="http://www.w3.org/2000/svg" xmlns:xlink="http://www.w3.org/1999/xlink" x="0px" y="0px"
	 width="88px" height="88px" viewBox="0 0 88 88" enable-background="new 0 0 88 88" xml:space="preserve">
<rect fill="#93A4C3" width="88" height="88"/>
<rect x="-88" y="104" fill="#B7C2D7" width="44" height="44"/>
<rect x="-88" y="148" fill="#4B689C" width="44" height="44"/>
<rect x="-88" y="192" fill="#6F86AF" width="44" height="44"/>
<rect x="-88" y="236" fill="#93A4C3" width="44" height="44"/>
<rect x="-88" y="280" fill="#B7C2D7" width="44" height="44"/>
<rect x="30" y="40" fill="#FFFFFF" width="28" height="8"/>
<rect x="-73" y="36" fill="#FFFFFF" width="14" height="4"/>
<rect x="-73" y="80" fill="#FFFFFF" width="14" height="4"/>
<rect x="-73" y="124" fill="#FFFFFF" width="14" height="4"/>
<rect x="-73" y="168" fill="#FFFFFF" width="14" height="4"/>
<rect x="-68" y="163" fill="#FFFFFF" width="4" height="14"/>
<rect x="-73" y="212" fill="#FFFFFF" width="14" height="4"/>
<rect x="-68" y="207" fill="#FFFFFF" width="4" height="14"/>
<rect x="-73" y="256" fill="#FFFFFF" width="14" height="4"/>
<rect x="-68" y="251" fill="#FFFFFF" width="4" height="14"/>
<rect x="-73" y="300" fill="#FFFFFF" width="14" height="4"/>
<rect x="-68" y="295" fill="#FFFFFF" width="4" height="14"/>
</svg>
