<?xml version="1.0" encoding="utf-8"?>
<!-- Generator: Adobe Illustrator 16.0.0, SVG Export Plug-In . SVG Version: 6.00 Build 0)  -->
<!DOCTYPE svg PUBLIC "-//W3C//DTD SVG 1.1//EN" "http://www.w3.org/Graphics/SVG/1.1/DTD/svg11.dtd">
<svg version="1.1" id="Layer_1" xmlns="http://www.w3.org/2000/svg" xmlns:xlink="http://www.w3.org/1999/xlink" x="0px" y="0px"
	 width="88px" height="88px" viewBox="0 0 88 88" enable-background="new 0 0 88 88" xml:space="preserve">
<rect fill="#4B689C" width="88" height="88"/>
<rect x="-86" y="-78" fill="#4B689C" width="44" height="44"/>
<rect x="-86" y="-34" fill="#4B699C" width="44" height="44"/>
<rect x="-86" y="10" fill="#4B689C" width="44" height="44"/>
<rect x="-86" y="54" fill="#6F86AF" width="44" height="44"/>
<rect x="-86" y="98" fill="#93A4C3" width="44" height="44"/>
<rect x="-86" y="142" fill="#B7C2D7" width="44" height="44"/>
<rect x="-86" y="186" fill="#4B689C" width="44" height="44"/>
<rect x="-86" y="230" fill="#6F86AF" width="44" height="44"/>
<rect x="-86" y="274" fill="#93A4C3" width="44" height="44"/>
<rect x="-86" y="318" fill="#B7C2D7" width="44" height="44"/>
<rect x="-71" y="30" fill="#FFFFFF" width="14" height="4"/>
<rect x="-71" y="74" fill="#FFFFFF" width="14" height="4"/>
<rect x="-71" y="118" fill="#FFFFFF" width="14" height="4"/>
<rect x="-71" y="162" fill="#FFFFFF" width="14" height="4"/>
<rect x="-71" y="206" fill="#FFFFFF" width="14" height="4"/>
<rect x="-66" y="201" fill="#FFFFFF" width="4" height="14"/>
<rect x="-71" y="250" fill="#FFFFFF" width="14" height="4"/>
<rect x="-66" y="245" fill="#FFFFFF" width="4" height="14"/>
<rect x="-71" y="294" fill="#FFFFFF" width="14" height="4"/>
<rect x="-66" y="289" fill="#FFFFFF" width="4" height="14"/>
<rect x="-71" y="338" fill="#FFFFFF" width="14" height="4"/>
<rect x="-66" y="333" fill="#FFFFFF" width="4" height="14"/>
<path fill="#FFFFFF" d="M27.613,33.413c2.338,0,4.227,1.912,4.227,4.279v12.609c0,2.363-1.889,4.285-4.227,4.285l0,0
	c-2.34,0-4.229-1.922-4.229-4.285V37.692C23.385,35.325,25.273,33.413,27.613,33.413L27.613,33.413z"/>
<path fill="#FFFFFF" d="M60.387,33.413c2.34,0,4.246,1.912,4.246,4.279v12.609c0,2.363-1.906,4.285-4.246,4.285l0,0
	c-2.338,0-4.227-1.922-4.227-4.285V37.692C56.16,35.325,58.049,33.413,60.387,33.413L60.387,33.413z"/>
<path fill="#FFFFFF" d="M44.01,33.413c2.32,0,4.229,1.912,4.229,4.279v12.609c0,2.363-1.908,4.285-4.229,4.285l0,0
	c-2.34,0-4.248-1.922-4.248-4.285V37.692C39.762,35.325,41.67,33.413,44.01,33.413L44.01,33.413z"/>
<g>
	<path fill="#FFFFFF" d="M-51.574-20.298c0,1.186-0.945,2.142-2.113,2.142h-20.624c-1.168,0-2.115-0.956-2.115-2.142l0,0
		c0-1.184,0.947-2.14,2.115-2.14h20.624C-52.52-22.438-51.574-21.482-51.574-20.298L-51.574-20.298z"/>
	<path fill="#FFFFFF" d="M-51.574-3.701c0,1.184-0.945,2.147-2.113,2.147h-20.624c-1.168,0-2.115-0.964-2.115-2.147l0,0
		c0-1.186,0.947-2.143,2.115-2.143h20.624C-52.52-5.843-51.574-4.886-51.574-3.701L-51.574-3.701z"/>
	<path fill="#FFFFFF" d="M-51.574-11.995c0,1.175-0.945,2.141-2.113,2.141h-20.624c-1.168,0-2.115-0.966-2.115-2.141l0,0
		c0-1.186,0.947-2.151,2.115-2.151h20.624C-52.52-14.146-51.574-13.18-51.574-11.995L-51.574-11.995z"/>
</g>
<g>
	<path fill="#FFFFFF" d="M-59.334-64.078c-3.494-3.541-9.152-3.541-12.646,0c-3.492,3.535-3.492,9.27,0,12.802
		c3.01,3.05,7.635,3.468,11.087,1.254l4.703,4.757l2.787-2.822l-4.695-4.764C-55.918-56.348-56.324-61.029-59.334-64.078z
		 M-61.297-53.264c-2.408,2.442-6.314,2.442-8.721,0c-2.409-2.439-2.409-6.396,0-8.828c2.407-2.444,6.313-2.444,8.721,0
		C-58.891-59.66-58.891-55.703-61.297-53.264z"/>
</g>
</svg>
