<?xml version="1.0" encoding="utf-8"?>
<!-- Generator: Adobe Illustrator 18.0.0, SVG Export Plug-In . SVG Version: 6.00 Build 0)  -->
<!DOCTYPE svg PUBLIC "-//W3C//DTD SVG 1.1//EN" "http://www.w3.org/Graphics/SVG/1.1/DTD/svg11.dtd">
<svg version="1.1" id="Layer_1" xmlns="http://www.w3.org/2000/svg" xmlns:xlink="http://www.w3.org/1999/xlink" x="0px" y="0px"
	 viewBox="0 0 512.7 116" enable-background="new 0 0 512.7 116" xml:space="preserve">
<g>
	<path fill="#FFFFFF" d="M214.2,17.7c3.3,0,5.9,0.3,10.3,0.3c4.7-0.1,6.9-0.2,8.8-0.2c0.2,0.2,0.2,1.1,0,1.3
		c-2.1,0.4-2.7,0.5-3.4,0.8c-1.1,0.5-1.4,1.4-0.8,3.6c2,8.3,7.1,25.6,9.9,35c0,0,0.2-0.1,0.2-0.2c2.9-8.1,11.4-32.2,13-38.4
		c0.6,0.1,2.6,0,3.1-0.1c1.5,6.3,10.8,32.1,13.4,38.9c0.1,0,0.2-0.1,0.3-0.1c2.1-6.6,8.1-26.4,9.5-33.3c0.5-2.6,0.7-4.8-1.5-5.4
		c-1.3-0.3-2.3-0.6-4.7-0.9c-0.2-0.3-0.3-1.1,0-1.3c1.8,0,5.8,0.2,9,0.2c4.5,0,6.7-0.2,8.3-0.2c0.3,0.2,0.3,1.1,0,1.3
		c-2,0.4-3.2,0.7-4,1c-1.8,0.8-2.6,2.1-3.8,5.4c-3.3,9.6-11.3,35.5-13.6,44c-0.4,0-2.7-0.1-3.2,0.1c-2.1-7.3-9.6-28.7-13.4-39.2
		c-0.1,0-0.2,0-0.3,0.2c-3,8.7-11.3,31.9-13.3,38.9c-0.3-0.1-2.9-0.1-3.4,0.1c-2.4-10.2-9.6-35.8-12.3-43.6
		c-1.4-4.3-2.3-5.4-4.6-6.1c-1.3-0.3-2.2-0.5-3.8-0.8C213.8,18.9,213.8,17.9,214.2,17.7z"/>
	<path fill="#FFFFFF" d="M283.8,32.5c1.4,0,4.8,0.2,8,0.2h12.5c3.4,0,5.4-0.1,6.6-0.3c0,0,0.2,0.2,0.2,0.2c-0.6,1.8-1.2,5.9-1.2,8.6
		c-0.2,0.2-1.1,0.2-1.3,0c-0.2-1.3-0.4-3-0.8-3.8c-0.4-1.7-0.8-2.4-3.1-2.6c-1.5-0.2-8.1-0.1-8.9,0c-0.4,0.1-0.7,0.8-0.7,1.1
		c-0.1,4.1-0.2,11.5-0.1,12.8c0,0.2,0.2,0.4,0.3,0.4c2.8,0,7.1,0,8.8-0.1c1.8-0.1,2.2-1.2,2.6-2.4c0.2-0.8,0.4-1.6,0.5-2.3
		c0.2-0.1,1.3-0.1,1.3,0.1c-0.1,0.8-0.3,4.3-0.3,5.9c0,1.2,0.2,4.5,0.2,5.9c-0.2,0.2-1.2,0.2-1.4,0c-0.2-1.2-0.3-1.9-0.5-2.5
		c-0.3-0.9-0.7-1.9-2.3-2.1c-1.8-0.2-6.4-0.2-8.9-0.2c-0.1,0-0.3,0.4-0.3,0.5c0,1.5,0,8.1,0.1,11.7c0.1,1.9,1,2.7,1.4,2.8
		c1.4,0.3,4.1,0.4,8,0.4c3.4,0,4.2-0.8,5.1-1.8c1.3-1.5,2.5-3.7,3.4-6c0.2-0.1,1.2,0.2,1.2,0.5c-0.2,1.4-1.8,6.8-2.9,8.9
		c-0.2,0.4-0.7,0.6-2.3,0.6c-3.2,0-8.4-0.2-17.4-0.2c-3.8,0-6.8,0.3-9.4,0.3c-0.2-0.2-0.2-1.2,0-1.3c1.6-0.1,3.5-0.3,4.6-0.7
		c1.4-0.4,1.9-0.9,2-3.3c0.1-2.2,0.1-7.9,0.1-14.8c0-5.7-0.1-10.6-0.1-11.7c-0.2-1.9-0.5-2.5-1.9-3c-0.8-0.2-2.3-0.5-3.3-0.6
		C283.6,33.7,283.6,32.6,283.8,32.5z"/>
	<path fill="#FFFFFF" d="M324.3,66.6c1.5,1.2,3.8,1.8,5.9,1.8c3.7,0,6.9-1.9,6.9-6.3c0-3.4-1.6-5.7-8.2-9.1c-6.1-3.3-9-6.1-9-11.3
		c0-6.6,6-10,12.5-10c2.8,0,4.2,0.3,5.7,0.4c1.3,0.2,2.9,0.4,3.5,0.4c-0.3,1.8-0.8,5.7-1,8.8c-0.2,0.2-1.2,0.2-1.3,0
		c-0.2-3.7-1.1-5.5-2.4-6.6c-1.2-1-3.2-1.5-5.4-1.5c-4.3,0-6.3,2.9-6.3,6.1c0,3.2,1.7,5.2,4.1,6.6c2.8,1.7,5.1,2.8,7.6,4.3
		c3.1,1.8,6,4.3,6,8.9c0,5.8-5.3,10.9-13.8,10.9c-3.4,0-7.9-1.1-9.2-1.8c-0.5-0.8-1.2-7.2-1.3-9.3c0.1-0.2,1-0.4,1.2-0.3
		C320.9,62.8,322.4,65.3,324.3,66.6z"/>
	<path fill="#FFFFFF" d="M357.5,67.3c1.8-0.3,2.3-1.3,2.4-4.2c0.2-2.6,0.3-18.6,0.3-28c0-0.2-0.3-0.4-0.4-0.4c-1.1-0.1-5.8,0-7,0.1
		c-1.3,0.1-2.3,0.8-3.1,2.2c-0.8,1.3-1.5,3.3-2.4,5.7c-0.2,0-1.2-0.2-1.3-0.3c0.5-2.4,1-7.8,1.2-10.3c0-0.1,0.2-0.2,0.3-0.1
		c1.6,0.7,3.2,0.8,4.6,0.8h23c2,0,3.3,0.1,5.3-0.7c0.1,0,0.3,0.1,0.3,0.2c-0.6,2.1-0.9,7.4-1.2,10.5c-0.2,0.2-1.3,0.3-1.3,0
		c-0.3-2.4-0.7-4.3-1.2-5.4c-0.7-1.7-1.6-2.3-2.9-2.3c-2.2-0.2-6.4-0.2-7.7-0.2c-0.2,0.1-0.2,0.3-0.2,0.5c0,8.4,0,26.3,0.2,29.4
		c0.1,1.3,0.6,2.3,1.9,2.7c0.9,0.2,2,0.3,3.6,0.6c0.2,0.1,0.2,1.2-0.1,1.3c-1.8,0-5.4-0.3-9.3-0.3c-4.3,0-7.5,0.3-9.1,0.3
		c-0.2-0.2-0.2-1.2,0-1.3C355.5,67.7,356.7,67.6,357.5,67.3z"/>
	<path fill="#FFFFFF" d="M383.7,32.5c1.4,0,4.8,0.2,8,0.2h12.5c3.4,0,5.4-0.1,6.6-0.3c0,0,0.2,0.2,0.2,0.2c-0.6,1.8-1.2,5.9-1.2,8.6
		c-0.2,0.2-1.1,0.2-1.3,0c-0.2-1.3-0.4-3-0.7-3.8c-0.4-1.7-0.8-2.4-3.1-2.6c-1.5-0.2-8.1-0.1-8.9,0c-0.4,0.1-0.7,0.8-0.7,1.1
		c-0.1,4.1-0.2,11.5-0.1,12.8c0,0.2,0.2,0.4,0.3,0.4c2.8,0,7.1,0,8.8-0.1c1.8-0.1,2.2-1.2,2.6-2.4c0.3-0.8,0.4-1.6,0.5-2.3
		c0.2-0.1,1.3-0.1,1.3,0.1c-0.1,0.8-0.3,4.3-0.3,5.9c0,1.2,0.2,4.5,0.2,5.9c-0.3,0.2-1.2,0.2-1.4,0c-0.2-1.2-0.3-1.9-0.5-2.5
		c-0.3-0.9-0.7-1.9-2.3-2.1c-1.8-0.2-6.4-0.2-8.9-0.2c-0.1,0-0.2,0.4-0.2,0.5c0,1.5,0,8.1,0.1,11.7c0.1,1.9,1,2.7,1.4,2.8
		c1.4,0.3,4.1,0.4,8,0.4c3.4,0,4.2-0.8,5.1-1.8c1.3-1.5,2.5-3.7,3.4-6c0.3-0.1,1.2,0.2,1.2,0.5c-0.2,1.4-1.8,6.8-2.9,8.9
		c-0.2,0.4-0.7,0.6-2.3,0.6c-3.2,0-8.4-0.2-17.3-0.2c-3.8,0-6.8,0.3-9.4,0.3c-0.2-0.2-0.2-1.2,0-1.3c1.6-0.1,3.5-0.3,4.6-0.7
		c1.4-0.4,1.9-0.9,2-3.3c0.1-2.2,0.1-7.9,0.1-14.8c0-5.7-0.1-10.6-0.1-11.7c-0.2-1.9-0.5-2.5-1.9-3c-0.8-0.2-2.3-0.5-3.3-0.6
		C383.5,33.7,383.5,32.6,383.7,32.5z"/>
	<path fill="#FFFFFF" d="M417.6,32.5c1.4,0,5.3,0.2,7.8,0.2h10.4c7.3,0,10.6,3.9,10.6,8.8c0,4.8-3.8,7.8-7.5,9.3
		c-0.1,0.1,0,0.3,0.1,0.4c2,3.3,7.4,11.3,10.4,14.1c2.2,2.3,3.3,2.3,5.8,2.7c0.1,0,0,1.3-0.2,1.3c-2.5,0.3-8,0-9.8-0.8
		c-0.9-0.3-1.8-1-2.8-2.2c-2.3-2.6-6.4-9.3-8.7-12.7c-0.5-0.8-0.9-1-1.9-1.2c-0.8-0.1-1.9-0.1-2.8-0.1c-0.2,0-0.2,0.3-0.2,0.4
		c0,3.3,0.1,8.9,0.2,11.2c0.2,2.5,0.7,2.9,1.8,3.3c0.8,0.3,1.8,0.4,3.3,0.6c0.2,0.2,0.1,1.2-0.1,1.3c-1.3,0-4.8-0.3-8.8-0.3
		c-4.3,0-7.1,0.3-8.3,0.3c-0.2-0.1-0.2-1.3,0-1.3c1.3-0.2,3-0.3,3.6-0.5c1.4-0.3,2-1.1,2.2-3.3c0.1-1.6,0.1-9.3,0.1-12.4
		c0-4.8,0.1-12.8-0.1-14.8c-0.1-1.6-0.8-2-1.8-2.3c-0.8-0.2-2.3-0.5-3.6-0.6C417.3,33.7,417.3,32.6,417.6,32.5z M429,35.5
		c-0.1,1.8-0.2,9.7-0.2,14.5c0,0.3,0.1,0.5,0.4,0.5c1.3,0.1,5.1,0.1,6.6-0.2c2.2-0.6,4.3-2.3,4.3-7.2c0-5.4-2.8-8.6-8.8-8.6
		c-0.6,0-1.4,0.1-1.9,0.2C429.2,34.8,429,35.2,429,35.5z"/>
	<path fill="#FFFFFF" d="M454,32.4c1.1,0,5.1,0.2,7.8,0.2c1.3,0,3.3,0,3.9-0.1c0.2,0.5,0.6,1.3,2.1,3.2c6.3,7.9,18.2,22.2,20.9,25.3
		c0.1,0.1,0.2-0.1,0.2-0.2c0-7.8-0.2-19.4-0.4-23.3c-0.1-1.8-0.8-3-2.5-3.3c-0.8-0.2-1.4-0.3-3.1-0.5c-0.1-0.2-0.1-1.2,0-1.3
		c1.5,0,3.9,0.2,7.1,0.2c1.9,0,5.6-0.2,6.3-0.2c0.1,0.2,0.1,1.1,0,1.2c-1,0.2-2.3,0.3-2.9,0.6c-1.5,0.4-1.7,1.6-1.8,3
		c-0.3,4.5-0.4,16.7-0.4,24.1c0,2.7,0.1,6.1,0.2,7.9c-1.3-0.1-3.3,0-4.4,0.1c-2.6-3.8-21-26.8-23.8-30.1c-0.1-0.1-0.2-0.1-0.2,0
		c-0.1,6,0,20.9,0.1,24.3c0.2,2.8,0.9,3.2,2.2,3.8c0.8,0.3,2.6,0.6,3.8,0.7c0.2,0.1,0.2,1.2,0,1.3c-1.2,0-4.8-0.3-7.8-0.3
		c-2.9,0-5.4,0.3-6.7,0.3c-0.2-0.2-0.2-1.3,0-1.3c0.8-0.1,2.4-0.3,3.7-0.7c1.4-0.5,1.7-1.8,1.8-3.6c0.3-2.7,0.5-12.9,0.5-25.7
		c0-1.1-0.3-2-1.3-2.8c-1.1-0.9-2.2-1.3-5.3-1.5C453.8,33.6,453.8,32.6,454,32.4z"/>
</g>
<g>
	<path fill="#FFFFFF" d="M230.5,78.3c0.3,0,1,0.1,1.8,0.1c1.1,0,1.6-0.1,1.9-0.1c0,0,0,0.3,0,0.3l-0.7,0.1c-0.1,0-0.2,0.2-0.2,0.4
		c0.1,0.7,1.6,5.3,1.8,5.9c0,0,0,0,0,0c0.2-0.5,0.7-2,1.3-4c0.3-0.9,0.5-1.5,0.6-2.2c0.2,0,0.6,0,0.8,0c0.1,0.2,0.2,0.6,0.4,1.3
		c0.5,1.3,1.7,4.5,1.9,5c0,0,0,0,0.1,0c0.2-0.5,1.5-4.6,1.7-5.5c0.1-0.5,0-0.7-0.3-0.8c-0.2-0.1-0.5-0.1-0.8-0.2
		c-0.1-0.1,0-0.3,0-0.3c0.1,0,1,0.1,1.7,0.1c0.8,0,1.3-0.1,1.5-0.1c0.1,0,0.1,0.3,0,0.3l-0.6,0.1c-0.4,0.1-0.6,0.3-1,1.2
		c-0.3,0.9-1.2,3.6-1.8,5.4c-0.2,0.7-0.3,1.1-0.5,1.7c-0.2,0-0.7,0-0.9,0c-0.6-1.8-1.8-4.7-2.3-6.2h-0.1c-0.5,1.5-1.6,4.7-2,6.2
		c-0.1,0-0.7,0-0.9,0c-0.1-0.5-0.3-1.2-0.5-1.9c-0.6-1.8-1.3-4.1-1.8-5.5c-0.2-0.7-0.4-0.9-0.8-0.9c-0.2-0.1-0.4-0.1-0.7-0.1
		C230.5,78.6,230.5,78.4,230.5,78.3z"/>
	<path fill="#FFFFFF" d="M248.2,85.5c0.6-1.3,2.2-5.3,2.6-6.4c0.1-0.3,0.2-0.6,0.2-0.8c0,0,0.2,0,0.5,0c0.3,0,0.4,0,0.5,0
		c0,0.1,0.1,0.4,0.2,0.7c0.3,0.9,1.9,5.5,2.4,6.6c0.4,0.9,0.5,1,1.5,1.1c0,0,0,0.3,0,0.3c-0.3,0-1-0.1-1.7-0.1c-0.9,0-1.6,0.1-2,0.1
		c0,0,0-0.3,0-0.3c0.3,0,0.5-0.1,0.7-0.1c0.3-0.1,0.3-0.3,0.2-0.4c-0.2-0.7-0.6-1.8-0.9-2.5c0,0-0.1-0.1-0.1-0.1c-0.1,0-0.5,0-1.3,0
		c-0.9,0-1.1,0-1.2,0c-0.1,0-0.2,0.1-0.2,0.1c-0.3,0.7-0.8,1.9-0.9,2.3c0,0.2,0,0.5,0.4,0.6c0.2,0.1,0.4,0.1,0.7,0.1
		c0,0,0,0.3,0,0.3c-0.3,0-1.2-0.1-1.8-0.1c-0.7,0-1.2,0.1-1.5,0.1c0,0,0-0.3,0-0.3C247.5,86.6,247.7,86.5,248.2,85.5z M249.9,82.9
		C249.9,82.9,249.9,83,249.9,82.9c0.2,0.1,0.2,0.1,0.9,0.1c0.4,0,1,0,1.2,0c0,0,0.1,0,0-0.1c-0.3-1-0.8-2.4-1-3H251L249.9,82.9z"/>
	<path fill="#FFFFFF" d="M262.2,86.4c0.4,0.3,0.9,0.4,1.4,0.4c0.9,0,1.6-0.5,1.6-1.5c0-0.8-0.4-1.3-1.9-2.2
		c-1.4-0.8-2.1-1.4-2.1-2.7c0-1.6,1.4-2.4,3-2.4c0.7,0,1,0.1,1.3,0.1c0.3,0,0.7,0.1,0.8,0.1c-0.1,0.4-0.2,1.3-0.2,2.1
		c0,0-0.3,0.1-0.3,0c-0.1-0.9-0.3-1.3-0.6-1.6c-0.3-0.2-0.8-0.4-1.3-0.4c-1,0-1.5,0.7-1.5,1.4c0,0.8,0.4,1.2,1,1.6
		c0.7,0.4,1.2,0.7,1.8,1c0.7,0.4,1.4,1,1.4,2.1c0,1.4-1.3,2.6-3.3,2.6c-0.8,0-1.9-0.3-2.2-0.4c-0.1-0.2-0.3-1.7-0.3-2.2
		c0,0,0.2-0.1,0.3-0.1C261.4,85.5,261.8,86.1,262.2,86.4z"/>
	<path fill="#FFFFFF" d="M271.7,78.3c0.4,0,1.2,0.1,1.9,0.1c0.8,0,1.7-0.1,2-0.1c0.1,0,0,0.3,0,0.3l-0.7,0.1
		c-0.3,0.1-0.4,0.2-0.4,0.6c0,0.5,0,1.4,0,2.7c0,0,0,0.1,0.1,0.1c0.1,0,0.6,0,2.2,0c1.3,0,1.9,0,2.2,0c0.1,0,0.1,0,0.1-0.1
		c0-0.7,0-2.2,0-2.7c0-0.4-0.2-0.6-0.5-0.7c-0.2,0-0.5-0.1-0.8-0.1c0,0,0-0.3,0-0.3c0.4,0,1,0.1,1.9,0.1c1.1,0,1.7-0.1,2-0.1
		c0.1,0,0.1,0.3,0,0.3c-0.3,0-0.6,0.1-0.7,0.1c-0.3,0.1-0.5,0.2-0.5,0.7c0,0.6,0,1.4,0,3.2c0,1.2,0,2.7,0.1,3.2
		c0,0.4,0.1,0.6,0.4,0.7c0.3,0.1,0.4,0.1,0.9,0.1c0,0,0,0.3,0,0.3c-0.5,0-1.2-0.1-2.1-0.1c-0.8,0-1.4,0-1.8,0.1c0,0,0-0.3,0-0.3
		c0.3,0,0.6-0.1,0.7-0.1c0.3-0.1,0.4-0.3,0.4-0.7c0-0.4,0-2.1,0-2.9c0-0.1,0-0.1-0.1-0.1c-0.2,0-1.3,0-2.1,0c-1.1,0-2.2,0-2.3,0
		c0,0-0.1,0.1-0.1,0.1c0,0.8,0,2.4,0,2.8c0,0.5,0.1,0.8,0.4,0.9c0.2,0.1,0.4,0.1,0.8,0.2c0,0,0,0.3,0,0.3c-0.6,0-1.2-0.1-2-0.1
		c-1.1,0-1.6,0.1-2,0.1c0,0-0.1-0.3,0-0.3c0.3,0,0.7-0.1,0.9-0.1c0.4-0.1,0.4-0.3,0.5-1c0-0.5,0-1.8,0-3.1c0-1.3,0-2.9,0-3.2
		c0-0.4-0.2-0.5-0.4-0.6c-0.3-0.1-0.5-0.1-0.9-0.1C271.7,78.6,271.7,78.4,271.7,78.3z"/>
	<path fill="#FFFFFF" d="M286.8,78.3c0.3,0,1.2,0.1,1.9,0.1c0.7,0,1.6-0.1,2-0.1c0.1,0,0.1,0.3,0,0.3c-0.2,0-0.6,0.1-0.7,0.1
		c-0.3,0.1-0.4,0.3-0.4,0.7c0,0.6,0,1.9,0,3.1c0,1.5,0,2.8,0,3.3c0,0.4,0.1,0.6,0.4,0.8c0.2,0.1,0.5,0.1,0.9,0.2c0,0,0,0.3,0,0.3
		c-0.3,0-1.2-0.1-2-0.1c-0.9,0-1.4,0.1-2,0.1c0,0-0.1-0.3,0-0.3c0.3,0,0.6-0.1,0.8-0.1c0.3-0.1,0.4-0.3,0.5-0.7c0-0.4,0-2.4,0-3.7
		c0-1.1,0-2.2,0-2.8c0-0.4-0.1-0.6-0.4-0.7c-0.2-0.1-0.5-0.1-0.9-0.1C286.8,78.6,286.8,78.3,286.8,78.3z"/>
	<path fill="#FFFFFF" d="M295.6,78.3c0.3,0,1.2,0.1,1.8,0.1c0.3,0,0.8,0,0.9,0c0,0.1,0.1,0.3,0.5,0.8c1.5,1.9,4.3,5.3,5,6
		c0,0,0,0,0.1,0c0-1.8,0-4.6-0.1-5.5c0-0.4-0.2-0.7-0.6-0.8c-0.2-0.1-0.3-0.1-0.7-0.1c0-0.1,0-0.3,0-0.3c0.4,0,0.9,0.1,1.7,0.1
		c0.5,0,1.3-0.1,1.5-0.1c0,0,0,0.3,0,0.3c-0.2,0-0.5,0.1-0.7,0.1c-0.4,0.1-0.4,0.4-0.4,0.7c-0.1,1.1-0.1,4-0.1,5.7
		c0,0.6,0,1.4,0,1.9c-0.3,0-0.8,0-1.1,0c-0.6-0.9-5-6.4-5.7-7.2c0,0,0,0,0,0c0,1.4,0,4.9,0,5.7c0,0.7,0.2,0.8,0.5,0.9
		c0.2,0.1,0.6,0.1,0.9,0.2c0.1,0,0,0.3,0,0.3c-0.3,0-1.1-0.1-1.8-0.1c-0.7,0-1.3,0.1-1.6,0.1c-0.1,0-0.1-0.3,0-0.3
		c0.2,0,0.6-0.1,0.9-0.2c0.3-0.1,0.4-0.4,0.4-0.9c0.1-0.6,0.1-3,0.1-6.1c0-0.3-0.1-0.5-0.3-0.7c-0.3-0.2-0.5-0.3-1.2-0.4
		C295.6,78.6,295.6,78.4,295.6,78.3z"/>
	<path fill="#FFFFFF" d="M319.1,86.8c-0.4,0.1-1.9,0.5-3.2,0.5c-3.2,0-4.9-1.6-4.9-4.6c0-1.8,0.9-3.3,2.5-4c0.8-0.4,1.7-0.5,3-0.5
		c0.5,0,1.3,0.1,1.7,0.1c0.4,0.1,0.8,0.1,1,0.1c-0.1,0.6-0.2,1.6-0.3,2.3c0,0-0.2,0.1-0.3,0c-0.2-1.1-0.3-1.5-0.8-1.8
		c-0.5-0.3-1.1-0.4-1.8-0.4c-2.2,0-3.3,1.6-3.3,4c0,2.6,1.3,4.3,3.7,4.3c0.4,0,0.7-0.1,0.9-0.2c0.1-0.1,0.2-0.3,0.3-0.5
		c0-0.4,0.1-1.2,0-1.7c0-0.5-0.2-0.6-0.5-0.7l-0.8-0.1c0-0.1,0-0.3,0-0.3c0.5,0,1.4,0,2,0c0.7,0,1.2,0,1.5,0c0,0,0.1,0.3,0,0.3
		l-0.5,0.1c-0.3,0.1-0.3,0.2-0.3,0.8c0,0.5,0,1.3,0,1.6c0,0.2,0.1,0.3,0.3,0.4C319.2,86.5,319.2,86.7,319.1,86.8z"/>
	<path fill="#FFFFFF" d="M326.9,86.6c0.4-0.1,0.6-0.3,0.6-1c0-0.6,0.1-4.4,0.1-6.7c0,0-0.1-0.1-0.1-0.1c-0.3,0-1.4,0-1.7,0
		c-0.3,0-0.6,0.2-0.7,0.5c-0.2,0.3-0.4,0.8-0.6,1.3c0,0-0.3,0-0.3-0.1c0.1-0.6,0.2-1.9,0.3-2.5c0,0,0,0,0.1,0
		c0.4,0.2,0.8,0.2,1.1,0.2h5.5c0.5,0,0.8,0,1.3-0.2c0,0,0.1,0,0.1,0.1c-0.1,0.5-0.2,1.8-0.3,2.5c0,0-0.3,0.1-0.3,0
		c-0.1-0.6-0.2-1-0.3-1.3c-0.2-0.4-0.4-0.5-0.7-0.6c-0.5,0-1.5-0.1-1.8,0c0,0-0.1,0.1-0.1,0.1c0,2,0,6.2,0.1,7
		c0,0.3,0.1,0.5,0.5,0.6c0.2,0.1,0.5,0.1,0.9,0.1c0.1,0,0,0.3,0,0.3c-0.4,0-1.3-0.1-2.2-0.1c-1,0-1.8,0.1-2.2,0.1
		c-0.1,0-0.1-0.3,0-0.3C326.4,86.7,326.7,86.7,326.9,86.6z"/>
	<path fill="#FFFFFF" d="M338.5,85.9c-0.9-0.9-1.2-2.2-1.2-3.3c0-1,0.3-1.9,0.8-2.7c0.8-1.1,2.4-1.9,3.9-1.9c2.9,0,4.4,2.1,4.4,4.4
		c0,1.2-0.3,2.1-0.9,2.9c-0.8,1.2-2.2,1.8-3.8,1.8C340.4,87.2,339.2,86.7,338.5,85.9z M344.8,83c0-2.1-1-4.4-3.3-4.4
		c-2,0-2.7,1.8-2.7,3.7c0,2.1,1,4.5,3.4,4.5C344.2,86.7,344.8,84.9,344.8,83z"/>
	<path fill="#FFFFFF" d="M351.5,78.3c0.3,0,1.2,0.1,1.8,0.1c0.3,0,0.8,0,0.9,0c0,0.1,0.1,0.3,0.5,0.8c1.5,1.9,4.3,5.3,5,6
		c0,0,0,0,0.1,0c0-1.8,0-4.6-0.1-5.5c0-0.4-0.2-0.7-0.6-0.8c-0.2-0.1-0.3-0.1-0.7-0.1c0-0.1,0-0.3,0-0.3c0.4,0,0.9,0.1,1.7,0.1
		c0.5,0,1.3-0.1,1.5-0.1c0,0,0,0.3,0,0.3c-0.2,0-0.5,0.1-0.7,0.1c-0.4,0.1-0.4,0.4-0.4,0.7c-0.1,1.1-0.1,4-0.1,5.7
		c0,0.6,0,1.4,0,1.9c-0.3,0-0.8,0-1.1,0c-0.6-0.9-5-6.4-5.7-7.2c0,0,0,0,0,0c0,1.4,0,4.9,0,5.7c0,0.7,0.2,0.8,0.5,0.9
		c0.2,0.1,0.6,0.1,0.9,0.2c0.1,0,0,0.3,0,0.3c-0.3,0-1.1-0.1-1.8-0.1c-0.7,0-1.3,0.1-1.6,0.1c-0.1,0-0.1-0.3,0-0.3
		c0.2,0,0.6-0.1,0.9-0.2c0.3-0.1,0.4-0.4,0.4-0.9c0.1-0.6,0.1-3,0.1-6.1c0-0.3-0.1-0.5-0.3-0.7c-0.3-0.2-0.5-0.3-1.2-0.4
		C351.5,78.6,351.5,78.4,351.5,78.3z"/>
	<path fill="#FFFFFF" d="M373.4,78.3c0.3,0,0.8,0.1,1.9,0.1c1,0,1.6-0.1,1.9-0.1c0.1,0.1,0,0.2,0,0.3c-0.3,0-0.5,0.1-0.7,0.1
		c-0.3,0.1-0.4,0.2-0.4,0.8c0,1.1,0,3.4,0,4.1c0.1,1,0.2,1.5,0.5,1.9c0.4,0.7,1.2,1,2.1,1c1.2,0,2.2-0.4,2.4-2.5
		c0.1-1.1,0.1-2.8,0-4.3c0-0.8-0.3-0.9-0.7-1c-0.2,0-0.4-0.1-0.7-0.1c-0.1-0.1-0.1-0.3,0-0.3c0.2,0,0.9,0.1,1.7,0.1
		c0.6,0,1.2-0.1,1.4-0.1c0.1,0,0.1,0.2,0,0.3c-0.2,0-0.5,0.1-0.7,0.1c-0.3,0.1-0.5,0.3-0.5,1.1c-0.1,3.2-0.1,4-0.3,5
		c-0.4,1.9-1.9,2.5-3.4,2.5c-2.1,0-3.2-0.9-3.4-2.6c-0.1-0.9,0-4.2-0.1-5.1c0-0.4-0.1-0.7-0.4-0.7c-0.2,0-0.6-0.1-0.8-0.1
		C373.3,78.6,373.3,78.3,373.4,78.3z"/>
	<path fill="#FFFFFF" d="M387.4,78.3c0.3,0,1.2,0.1,1.8,0.1c0.3,0,0.8,0,0.9,0c0,0.1,0.1,0.3,0.5,0.8c1.5,1.9,4.3,5.3,5,6
		c0,0,0,0,0.1,0c0-1.8,0-4.6-0.1-5.5c0-0.4-0.2-0.7-0.6-0.8c-0.2-0.1-0.3-0.1-0.7-0.1c0-0.1,0-0.3,0-0.3c0.4,0,0.9,0.1,1.7,0.1
		c0.5,0,1.3-0.1,1.5-0.1c0,0,0,0.3,0,0.3c-0.2,0-0.5,0.1-0.7,0.1c-0.4,0.1-0.4,0.4-0.4,0.7c-0.1,1.1-0.1,4-0.1,5.7
		c0,0.6,0,1.4,0,1.9c-0.3,0-0.8,0-1.1,0c-0.6-0.9-5-6.4-5.7-7.2c0,0,0,0,0,0c0,1.4,0,4.9,0,5.7c0,0.7,0.2,0.8,0.5,0.9
		c0.2,0.1,0.6,0.1,0.9,0.2c0.1,0,0,0.3,0,0.3c-0.3,0-1.1-0.1-1.8-0.1c-0.7,0-1.3,0.1-1.6,0.1c-0.1,0-0.1-0.3,0-0.3
		c0.2,0,0.6-0.1,0.9-0.2c0.3-0.1,0.4-0.4,0.4-0.9c0.1-0.6,0.1-3,0.1-6.1c0-0.3-0.1-0.5-0.3-0.7c-0.3-0.2-0.5-0.3-1.2-0.4
		C387.4,78.6,387.4,78.4,387.4,78.3z"/>
	<path fill="#FFFFFF" d="M402.3,78.3c0.3,0,1.2,0.1,1.9,0.1c0.7,0,1.6-0.1,2-0.1c0.1,0,0.1,0.3,0,0.3c-0.2,0-0.6,0.1-0.7,0.1
		c-0.3,0.1-0.4,0.3-0.4,0.7c0,0.6,0,1.9,0,3.1c0,1.5,0,2.8,0,3.3c0,0.4,0.1,0.6,0.4,0.8c0.2,0.1,0.5,0.1,0.9,0.2c0,0,0,0.3,0,0.3
		c-0.3,0-1.2-0.1-2-0.1c-0.9,0-1.4,0.1-2,0.1c0,0-0.1-0.3,0-0.3c0.3,0,0.6-0.1,0.8-0.1c0.3-0.1,0.4-0.3,0.5-0.7c0-0.4,0-2.4,0-3.7
		c0-1.1,0-2.2,0-2.8c0-0.4-0.1-0.6-0.4-0.7c-0.2-0.1-0.5-0.1-0.9-0.1C402.3,78.6,402.3,78.3,402.3,78.3z"/>
	<path fill="#FFFFFF" d="M410.7,78.3c0.3,0,1.2,0.1,1.8,0.1c1,0,1.6-0.1,1.9-0.1c0,0,0,0.3,0,0.3c-0.3,0-0.5,0.1-0.7,0.2
		c-0.1,0-0.2,0.2-0.2,0.4c0.3,0.9,2.1,5.5,2.4,6c0,0,0,0,0.1,0c0.2-0.5,1.8-4.4,2.2-5.6c0.2-0.5,0.1-0.7-0.3-0.8
		c-0.2-0.1-0.5-0.1-0.9-0.2c-0.1-0.1,0-0.3,0-0.3c0.3,0,1.1,0.1,1.7,0.1c0.8,0,1.3-0.1,1.5-0.1c0,0,0,0.3,0,0.3
		c-0.2,0-0.4,0.1-0.6,0.1c-0.4,0.1-0.6,0.3-1,1.2c-0.4,0.9-1.6,3.7-2.3,5.4c-0.3,0.7-0.5,1.1-0.6,1.7c-0.2,0-0.7,0-0.8,0
		c-0.1-0.5-0.4-1.2-0.6-1.9c-0.7-1.8-1.8-4.5-2.2-5.5c-0.3-0.7-0.5-0.9-0.9-1c-0.2-0.1-0.4-0.1-0.6-0.1
		C410.7,78.6,410.7,78.4,410.7,78.3z"/>
	<path fill="#FFFFFF" d="M424.8,78.3c0.3,0,1.1,0.1,1.9,0.1h3c0.8,0,1.3,0,1.6-0.1c0,0,0.1,0,0.1,0.1c-0.1,0.4-0.3,1.4-0.3,2
		c0,0-0.3,0-0.3,0c0-0.3-0.1-0.7-0.2-0.9c-0.1-0.4-0.2-0.6-0.7-0.6c-0.4,0-1.9,0-2.1,0c-0.1,0-0.2,0.2-0.2,0.3c0,1,0,2.7,0,3.1
		c0,0.1,0,0.1,0.1,0.1c0.7,0,1.7,0,2.1,0c0.4,0,0.5-0.3,0.6-0.6c0.1-0.2,0.1-0.4,0.1-0.6c0,0,0.3,0,0.3,0c0,0.2-0.1,1-0.1,1.4
		c0,0.3,0,1.1,0,1.4c-0.1,0.1-0.3,0.1-0.3,0c0-0.3-0.1-0.5-0.1-0.6c-0.1-0.2-0.2-0.5-0.6-0.5c-0.4,0-1.5,0-2.1,0
		c0,0-0.1,0.1-0.1,0.1c0,0.4,0,1.9,0,2.8c0,0.5,0.2,0.6,0.3,0.7c0.3,0.1,1,0.1,1.9,0.1c0.8,0,1-0.2,1.2-0.4c0.3-0.4,0.6-0.9,0.8-1.4
		c0.1,0,0.3,0,0.3,0.1c0,0.3-0.4,1.6-0.7,2.1c0,0.1-0.2,0.1-0.5,0.1c-0.8,0-2,0-4.1,0c-0.9,0-1.6,0.1-2.2,0.1c0,0,0-0.3,0-0.3
		c0.4,0,0.8-0.1,1.1-0.2c0.3-0.1,0.5-0.2,0.5-0.8c0-0.5,0-1.9,0-3.5c0-1.3,0-2.5,0-2.8c0-0.5-0.1-0.6-0.5-0.7
		c-0.2-0.1-0.5-0.1-0.8-0.1C424.8,78.6,424.8,78.3,424.8,78.3z"/>
	<path fill="#FFFFFF" d="M436.9,78.3c0.3,0,1.3,0.1,1.8,0.1h2.5c1.7,0,2.5,0.9,2.5,2.1c0,1.1-0.9,1.9-1.8,2.2c0,0,0,0.1,0,0.1
		c0.5,0.8,1.8,2.7,2.5,3.4c0.5,0.5,0.8,0.6,1.4,0.6c0,0,0,0.3,0,0.3c-0.6,0.1-1.9,0-2.3-0.2c-0.2-0.1-0.4-0.2-0.7-0.5
		c-0.6-0.6-1.5-2.2-2.1-3c-0.1-0.2-0.2-0.2-0.5-0.3c-0.2,0-0.5,0-0.7,0c0,0-0.1,0.1-0.1,0.1c0,0.8,0,2.1,0.1,2.7
		c0,0.6,0.2,0.7,0.4,0.8c0.2,0.1,0.4,0.1,0.8,0.1c0.1,0,0,0.3,0,0.3c-0.3,0-1.1-0.1-2.1-0.1c-1,0-1.7,0.1-2,0.1c0,0,0-0.3,0-0.3
		c0.3,0,0.7-0.1,0.9-0.1c0.3-0.1,0.5-0.3,0.5-0.8c0-0.4,0-2.2,0-3c0-1.2,0-3.1,0-3.5c0-0.4-0.2-0.5-0.4-0.6c-0.2,0-0.6-0.1-0.9-0.1
		C436.8,78.6,436.8,78.3,436.9,78.3z M439.6,79c0,0.4,0,2.3,0,3.5c0,0.1,0,0.1,0.1,0.1c0.3,0,1.2,0,1.6-0.1c0.5-0.1,1-0.6,1-1.7
		c0-1.3-0.7-2-2.1-2c-0.1,0-0.3,0-0.5,0.1C439.6,78.9,439.6,79,439.6,79z"/>
	<path fill="#FFFFFF" d="M451.6,86.4c0.4,0.3,0.9,0.4,1.4,0.4c0.9,0,1.6-0.5,1.6-1.5c0-0.8-0.4-1.3-1.9-2.2
		c-1.4-0.8-2.1-1.4-2.1-2.7c0-1.6,1.4-2.4,3-2.4c0.7,0,1,0.1,1.3,0.1c0.3,0,0.7,0.1,0.8,0.1c-0.1,0.4-0.2,1.3-0.2,2.1
		c0,0-0.3,0.1-0.3,0c-0.1-0.9-0.3-1.3-0.6-1.6c-0.3-0.2-0.8-0.4-1.3-0.4c-1,0-1.5,0.7-1.5,1.4c0,0.8,0.4,1.2,1,1.6
		c0.7,0.4,1.2,0.7,1.8,1c0.7,0.4,1.4,1,1.4,2.1c0,1.4-1.2,2.6-3.3,2.6c-0.8,0-1.9-0.3-2.2-0.4c-0.1-0.2-0.3-1.7-0.3-2.2
		c0,0,0.2-0.1,0.3-0.1C450.8,85.5,451.2,86.1,451.6,86.4z"/>
	<path fill="#FFFFFF" d="M461.1,78.3c0.3,0,1.2,0.1,1.9,0.1c0.7,0,1.6-0.1,2-0.1c0.1,0,0.1,0.3,0,0.3c-0.2,0-0.6,0.1-0.7,0.1
		c-0.3,0.1-0.4,0.3-0.4,0.7c0,0.6,0,1.9,0,3.1c0,1.5,0,2.8,0,3.3c0,0.4,0.1,0.6,0.4,0.8c0.2,0.1,0.5,0.1,0.9,0.2c0,0,0,0.3,0,0.3
		c-0.3,0-1.2-0.1-2-0.1c-0.9,0-1.4,0.1-2,0.1c0,0-0.1-0.3,0-0.3c0.3,0,0.6-0.1,0.8-0.1c0.3-0.1,0.4-0.3,0.5-0.7c0-0.4,0-2.4,0-3.7
		c0-1.1,0-2.2,0-2.8c0-0.4-0.1-0.6-0.4-0.7c-0.2-0.1-0.5-0.1-0.9-0.1C461.1,78.6,461.1,78.3,461.1,78.3z"/>
	<path fill="#FFFFFF" d="M472.6,86.6c0.4-0.1,0.6-0.3,0.6-1c0-0.6,0.1-4.4,0.1-6.7c0,0-0.1-0.1-0.1-0.1c-0.3,0-1.4,0-1.7,0
		c-0.3,0-0.6,0.2-0.7,0.5c-0.2,0.3-0.4,0.8-0.6,1.3c0,0-0.3,0-0.3-0.1c0.1-0.6,0.2-1.9,0.3-2.5c0,0,0,0,0.1,0
		c0.4,0.2,0.8,0.2,1.1,0.2h5.5c0.5,0,0.8,0,1.3-0.2c0,0,0.1,0,0.1,0.1c-0.1,0.5-0.2,1.8-0.3,2.5c0,0-0.3,0.1-0.3,0
		c-0.1-0.6-0.2-1-0.3-1.3c-0.2-0.4-0.4-0.5-0.7-0.6c-0.5,0-1.5-0.1-1.8,0c0,0-0.1,0.1-0.1,0.1c0,2,0,6.2,0.1,7
		c0,0.3,0.1,0.5,0.5,0.6c0.2,0.1,0.5,0.1,0.9,0.1c0.1,0,0,0.3,0,0.3c-0.4,0-1.3-0.1-2.2-0.1c-1,0-1.8,0.1-2.2,0.1
		c-0.1,0-0.1-0.3,0-0.3C472.1,86.7,472.4,86.7,472.6,86.6z"/>
	<path fill="#FFFFFF" d="M486,86.6c0.4-0.1,0.4-0.3,0.5-0.8l0-1.9c0-0.2,0-0.5-0.1-0.7c-0.3-0.7-1.2-2.2-1.7-3.2
		c-0.6-1.1-0.8-1.2-1.2-1.2c-0.2,0-0.3-0.1-0.6-0.1c-0.1,0-0.1-0.3,0-0.3c0.5,0,1.1,0.1,1.9,0.1c0.5,0,1.5-0.1,1.7-0.1
		c0.1,0,0.1,0.3,0,0.3l-0.5,0.1c-0.2,0.1-0.3,0.2-0.1,0.5c0.4,0.8,1.6,2.9,1.8,3.4h0.1c0.5-0.8,1.4-2.5,1.7-3.2
		c0.2-0.4,0.1-0.6-0.3-0.6c-0.2,0-0.4-0.1-0.7-0.1c0-0.1,0-0.3,0-0.3c0.4,0,1.1,0.1,1.6,0.1c0.5,0,1,0,1.4-0.1c0.1,0,0.1,0.3,0,0.3
		l-0.6,0.1c-0.5,0.1-0.7,0.4-0.9,0.9c-0.6,0.9-1.8,2.9-2,3.5c-0.1,0.1-0.1,0.4-0.1,0.5c0,0.7,0,1.4,0,2.1c0,0.6,0.1,0.9,0.5,0.9
		l0.8,0.1c0.1,0,0,0.3,0,0.3c-0.3,0-1.3-0.1-2-0.1c-0.7,0-1.6,0.1-2.1,0.1c-0.1,0-0.1-0.3,0-0.3L486,86.6z"/>
</g>
<g>
	<g>
		<path fill="#FFFFFF" d="M171.5,48.4c0,0,17.1,28.5,43.1,38.7C214.6,87.1,178.5,94.3,171.5,48.4z"/>
		<path fill="#FFFFFF" d="M20.6,77.4c0,0,38.1-8.6,76.2-54.6C96.9,22.8,67.2,91.3,20.6,77.4z"/>
		<path fill="#FFFFFF" d="M166.7,42.5c0,0,2.4,10.4-12.6,19.2c0,0-17.5-39.2-42.3-42.7c0,0,19.6,0,39.7,23
			C158.4,49.8,162.5,47.7,166.7,42.5z"/>
	</g>
	<g>
		<path fill="#0083D6" d="M14.2,78.9c0,0,16.8,5.6,31.7,2.3c29.8-6.6,42.2-17.2,61.5-20.5c19.3-3.3,23.8-1.9,46.7,1
			c0,0-5-0.9-17.5,1.3C102.9,68.7,85,84.7,56.3,86.8C27.6,88.9,14.2,78.9,14.2,78.9z"/>
		<path fill="#0083D6" d="M20.6,85c0,0,31.9,9.7,49.3,5.8c34.6-7.7,49-20,71.5-23.9c22.4-3.8,31.2-1.8,57.8,1.6
			c0,0-9.3-1.4-23.9,1.1c-39.1,6.7-59.9,25.4-93.3,27.8C48.7,99.8,20.6,85,20.6,85z"/>
	</g>
</g>
</svg>
