<?xml version="1.0" encoding="utf-8"?>
<!-- Generator: Adobe Illustrator 16.0.0, SVG Export Plug-In . SVG Version: 6.00 Build 0)  -->
<!DOCTYPE svg PUBLIC "-//W3C//DTD SVG 1.1//EN" "http://www.w3.org/Graphics/SVG/1.1/DTD/svg11.dtd">
<svg version="1.1" id="Layer_1" xmlns="http://www.w3.org/2000/svg" xmlns:xlink="http://www.w3.org/1999/xlink" x="0px" y="0px"
	 width="88px" height="88px" viewBox="0 0 88 88" enable-background="new 0 0 88 88" xml:space="preserve">
<rect fill="#4B689C" width="88" height="88"/>
<rect x="-86" y="-34" fill="#4B699C" width="44" height="44"/>
<rect x="-86" y="10" fill="#4B689C" width="44" height="44"/>
<rect x="-86" y="54" fill="#6F86AF" width="44" height="44"/>
<rect x="-86" y="98" fill="#93A4C3" width="44" height="44"/>
<rect x="-86" y="142" fill="#B7C2D7" width="44" height="44"/>
<rect x="-86" y="186" fill="#4B689C" width="44" height="44"/>
<rect x="-86" y="230" fill="#6F86AF" width="44" height="44"/>
<rect x="-86" y="274" fill="#93A4C3" width="44" height="44"/>
<rect x="-86" y="318" fill="#B7C2D7" width="44" height="44"/>
<rect x="-71" y="30" fill="#FFFFFF" width="14" height="4"/>
<rect x="-71" y="74" fill="#FFFFFF" width="14" height="4"/>
<rect x="-71" y="118" fill="#FFFFFF" width="14" height="4"/>
<rect x="-71" y="162" fill="#FFFFFF" width="14" height="4"/>
<rect x="-71" y="206" fill="#FFFFFF" width="14" height="4"/>
<rect x="-66" y="201" fill="#FFFFFF" width="4" height="14"/>
<rect x="-71" y="250" fill="#FFFFFF" width="14" height="4"/>
<rect x="-66" y="245" fill="#FFFFFF" width="4" height="14"/>
<rect x="-71" y="294" fill="#FFFFFF" width="14" height="4"/>
<rect x="-66" y="289" fill="#FFFFFF" width="4" height="14"/>
<rect x="-71" y="338" fill="#FFFFFF" width="14" height="4"/>
<rect x="-66" y="333" fill="#FFFFFF" width="4" height="14"/>
<g>
	<path fill="#FFFFFF" d="M-51.574-20.298c0,1.186-0.945,2.142-2.113,2.142h-20.624c-1.168,0-2.115-0.956-2.115-2.142l0,0
		c0-1.184,0.947-2.14,2.115-2.14h20.624C-52.52-22.438-51.574-21.482-51.574-20.298L-51.574-20.298z"/>
	<path fill="#FFFFFF" d="M-51.574-3.701c0,1.184-0.945,2.147-2.113,2.147h-20.624c-1.168,0-2.115-0.964-2.115-2.147l0,0
		c0-1.186,0.947-2.143,2.115-2.143h20.624C-52.52-5.843-51.574-4.886-51.574-3.701L-51.574-3.701z"/>
	<path fill="#FFFFFF" d="M-51.574-11.995c0,1.175-0.945,2.141-2.113,2.141h-20.624c-1.168,0-2.115-0.966-2.115-2.141l0,0
		c0-1.186,0.947-2.151,2.115-2.151h20.624C-52.52-14.146-51.574-13.18-51.574-11.995L-51.574-11.995z"/>
</g>
<g>
	<path fill="#FFFFFF" d="M53.332,27.844c-6.988-7.082-18.304-7.082-25.292,0c-6.984,7.07-6.984,18.539,0,25.604
		c6.02,6.1,15.27,6.936,22.175,2.508l9.406,9.514l5.574-5.645l-9.391-9.527C60.164,43.305,59.352,33.941,53.332,27.844z
		 M49.406,49.473c-4.815,4.885-12.628,4.885-17.442,0c-4.818-4.879-4.818-12.793,0-17.656c4.814-4.889,12.627-4.889,17.442,0
		C54.219,36.68,54.219,44.594,49.406,49.473z"/>
</g>
</svg>
